<?xml version="1.0" encoding="utf-8"?>
<!-- Generator: Adobe Illustrator 16.0.0, SVG Export Plug-In . SVG Version: 6.00 Build 0)  -->
<!DOCTYPE svg PUBLIC "-//W3C//DTD SVG 1.1//EN" "http://www.w3.org/Graphics/SVG/1.1/DTD/svg11.dtd">
<svg version="1.1" id="Capa_1" xmlns="http://www.w3.org/2000/svg" xmlns:xlink="http://www.w3.org/1999/xlink" x="0px" y="0px"
	 width="866.08px" height="129.58px" viewBox="0 0 866.08 129.58" enable-background="new 0 0 866.08 129.58" xml:space="preserve">
<g>
	<path fill-rule="evenodd" clip-rule="evenodd" fill="#222431" d="M117.969,55.458c-1.59-27.42-16.97-46.01-43.59-52.52
		c-15.33-3.75-30.7-2.85-46.03-0.08c-9.57,1.73-19.47,2.64-27.35,9.38v3c1.56,1.68,2.99,3.47,5.4,4.06
		c4.22,1.03,5.57,3.649,5.53,8.05c-0.2,23.131-0.2,46.271-0.01,69.41c0.05,5.26-1.11,9.41-5.71,12.37
		c-3.48,2.25-2.94,4.85-0.06,7.26c2.34,1.971,5.17,3.03,8.05,3.8c16.71,4.431,33.67,6.561,50.85,3.86
		c19.09-3,34.91-11.64,45.22-28.61C117.759,83.118,118.779,69.458,117.969,55.458z M80.769,98.178
		c-7.36,10.311-17.53,14.37-29.93,12.99c-7.66-0.85-10.83-4.57-10.83-12.08c-0.01-12.15-0.01-24.3-0.01-36.439V27.197
		c0.01-9.239,3.67-13.309,13.04-13.879c10.67-0.65,19.55,3.07,26.2,11.629C92.938,42.598,93.739,80.027,80.769,98.178z"/>
	<path fill-rule="evenodd" clip-rule="evenodd" fill="#222431" d="M354.939,42.357c-3.023,3.066-4.938,6.697-7.156,10.102
		c-6.535,10.035-12.646,20.373-20.619,29.391c-4.969,5.623-5.069,5.617-9.911,0.156c-9.294-10.484-17.214-22.033-25.584-33.232
		c-1.552-2.078-3.235-4.057-4.954-6.201c-1.738,1.791-1.047,3.533-1.052,5.068c-0.057,18.662,0.113,37.326-0.134,55.986
		c-0.068,5.158,1.643,8.502,6.179,10.84c2.292,1.184,5.646,1.943,4.445,6.039c-1.168,3.986-4.292,3.541-7.267,3.547
		c-7.665,0.018-15.331,0.002-22.996,0.008c-2.739,0-5.565-0.012-6.472-3.332c-0.881-3.225,1.619-4.52,3.876-5.527
		c5.43-2.424,7.115-6.35,7.049-12.303c-0.301-27.158-0.231-54.322-0.045-81.482c0.036-5.194-1.35-8.651-6.583-10.206
		c-2.182-0.648-4.898-1.841-4.125-4.634c0.72-2.602,2.22-5.087,5.964-4.923c5.987,0.263,11.998,0.195,17.991,0.014
		c2.727-0.083,4.286,1.455,5.924,3.12c9.403,9.551,16.514,20.859,24.272,31.667c3.105,4.328,6.297,8.594,9.311,12.984
		c2.327,3.387,4.078,3.982,6.808,0.094c7.376-10.51,13.478-21.768,20.01-32.774c1.523-2.567,3.165-5.072,4.883-7.515
		c3.807-5.414,8.677-8.255,15.69-7.637c6.283,0.554,12.654,0.124,18.987,0.113c2.315-0.004,4.303,0.472,5.146,3.01
		c0.912,2.746-0.854,4.309-2.822,5.115c-6.643,2.723-7.959,7.644-7.869,14.395c0.35,26.322,0.338,52.656-0.006,78.98
		c-0.078,5.949,2.089,9.502,7.107,11.766c2.268,1.023,4.354,2.023,3.744,5.008c-0.652,3.189-2.912,4.102-5.933,4.088
		c-12.664-0.053-25.329-0.025-37.992-0.021c-2.444,0.002-4.77-0.295-5.625-3.068c-0.891-2.889,1.009-4.578,3.196-5.445
		c6.398-2.535,7.492-7.336,7.378-13.629c-0.329-18.158-0.099-36.324-0.147-54.486C355.605,45.857,356.16,44.16,354.939,42.357z"/>
	<path fill-rule="evenodd" clip-rule="evenodd" fill="#222431" d="M556.938,71.031c0-17.434,0.061-34.867-0.041-52.299
		c-0.025-4.405-3.498-6.088-6.975-7.525c-2.531-1.048-4.332-2.64-3.764-5.646c0.523-2.778,2.457-3.558,5.15-3.528
		c8.826,0.1,17.654,0.073,26.482,0.015c2.578-0.017,4.652,0.459,5.201,3.418c0.531,2.852-1.07,4.731-3.406,5.35
		c-6.787,1.798-7.762,6.498-7.598,12.607c0.773,28.779,1.543,57.563,0.711,86.357c-0.066,2.322-0.447,4.637-0.51,6.959
		c-0.092,3.342-0.529,6.441-4.432,7.408c-4.135,1.025-7.713,0.674-10.59-3.236c-11.34-15.412-22.67-30.838-34.373-45.973
		c-8.539-11.039-17.656-21.631-26.387-32.264c-1.984,0.609-1.326,1.811-1.328,2.645c-0.076,19.984,0.004,39.971-0.221,59.953
		c-0.053,4.73,1.619,7.549,6.086,8.947c2.834,0.887,5.375,2.344,4.795,5.939c-0.594,3.688-3.482,3.92-6.475,3.908
		c-7.994-0.031-15.988,0.018-23.982-0.027c-2.654-0.016-5.531,0.172-6.389-3.334c-0.895-3.652,1.424-5.342,4.303-6.166
		c5.086-1.453,6.543-4.867,6.527-9.779c-0.092-27.813-0.1-55.625,0.006-83.439c0.02-5.09-1.41-8.681-6.725-10.149
		c-2.732-0.755-4.75-2.442-4.217-5.8c0.582-3.653,3.355-3.63,6.08-3.643c5.662-0.024,11.35,0.33,16.98-0.104
		c5.367-0.415,9.055,1.585,12.535,5.506c11.842,13.339,22.289,27.777,33.363,41.716c5.998,7.551,12.008,15.088,18.014,22.631
		C556.154,71.33,556.547,71.18,556.938,71.031z"/>
	<path fill-rule="evenodd" clip-rule="evenodd" fill="#222431" d="M683.082,53.678c0-10.992-0.197-21.992,0.09-32.979
		c0.129-4.902-1.525-7.952-6.195-9.436c-1.076-0.341-2.15-0.958-2.996-1.708c-1.484-1.311-1.994-2.956-1.207-4.95
		c0.713-1.799,1.943-2.542,3.826-2.539c9.662,0.02,19.322,0.02,28.982-0.011c2.264-0.007,3.904,0.755,4.414,3.125
		c0.482,2.247-0.289,4.402-2.371,4.934c-9.246,2.367-8.674,9.375-8.602,16.602c0.189,18.82-0.574,37.67,0.232,56.459
		c0.918,21.393-11.773,33.094-27.498,37.732c-18.082,5.332-35.541,4.398-51.439-6.863c-8.896-6.301-13.264-15.078-13.252-26.027
		c0.021-22.32-0.1-44.641,0.086-66.961c0.043-5.008-1.406-8.293-6.383-9.834c-2.615-0.81-5.078-2.249-4.564-5.62
		c0.539-3.529,3.279-3.57,6.104-3.557c12.66,0.056,25.318,0.032,37.979,0.019c2.547-0.003,5.146-0.223,5.748,3.236
		c0.537,3.083-1.223,5.019-3.723,5.685c-6.119,1.633-7.127,5.741-7.068,11.362c0.225,21.484,0.078,42.973,0.096,64.461
		c0.01,13.703,8.689,22.34,22.471,22.416c15.818,0.086,25.148-8.201,25.256-22.566C683.146,75.666,683.082,64.67,683.082,53.678z"/>
	<path fill-rule="evenodd" clip-rule="evenodd" fill="#222431" d="M769.547,125.416c-7.301,0.422-14.078-2.268-21.059-3.664
		c-3.895-0.779-7.049-0.508-10.094,2.342c-3.496,3.27-6.006,2.861-8.311-1.402c-4.18-7.738-5.971-16.172-6.324-24.922
		c-0.1-2.445,1.1-4.01,3.33-5.033c2.689-1.232,3.525,0.924,4.752,2.369c7.305,8.596,16.486,13.885,27.693,15.301
		c6.883,0.869,13.514,0.133,17.557-6.527c3.332-5.486,1.771-14.693-3.078-20.559c-3.113-3.764-6.992-6.602-11.072-9.238
		c-8.104-5.234-16.254-10.414-24.129-15.977c-6.891-4.869-12.811-10.742-14.77-19.426c-3.932-17.428,6.756-32.576,25.287-36.541
		c8.963-1.917,17.549-0.123,26.186,1.563c3.936,0.768,7.416,1.26,10.369-2.392c1.84-2.273,4.006-1.314,5.357,0.79
		c5.051,7.861,7.404,16.661,8.455,25.833c0.215,1.873-0.563,3.609-2.592,4.402c-1.885,0.738-3.092-0.328-4.424-1.438
		c-5.99-4.992-11.645-10.461-19.268-13.105c-3.844-1.333-7.711-2.085-11.748-1.577c-4.234,0.535-7.762,2.442-9.254,6.586
		c-1.578,4.387-0.84,8.506,2.803,11.852c4.568,4.193,9.818,7.404,15.055,10.641c9.797,6.055,19.34,12.443,26.844,21.363
		c5.67,6.738,10.109,14.123,10.689,23.172c1.18,18.43-8.137,30.463-26.365,34.248c-1.953,0.406-3.928,0.752-5.908,0.973
		C773.547,125.271,771.543,125.303,769.547,125.416z"/>
	<path fill-rule="evenodd" clip-rule="evenodd" fill="#222431" d="M432.883,2.074c6.828-0.004,13.658,0.014,20.486-0.014
		c2.148-0.008,4.094,0.325,4.598,2.813c0.471,2.334-0.203,4.307-2.449,5.458c-1.178,0.604-2.4,1.13-3.633,1.615
		c-3.336,1.316-4.867,3.733-4.863,7.327c0.029,28.979,0.047,57.957-0.016,86.934c-0.01,4.318,1.977,6.789,5.949,8.094
		c2.957,0.971,5.783,2.35,5.027,6.254c-0.74,3.826-3.918,3.486-6.736,3.492c-12.158,0.025-24.315,0.033-36.473-0.004
		c-2.814-0.008-5.969,0.268-6.731-3.543c-0.792-3.953,2.073-5.264,5.022-6.225c4.291-1.4,5.891-4.359,5.882-8.713
		c-0.054-28.48-0.058-56.959,0.005-85.438c0.009-4.399-1.706-7.31-5.949-8.668c-0.94-0.302-1.842-0.759-2.717-1.228
		c-2.039-1.092-2.666-2.88-2.271-5.057c0.439-2.431,2.138-3.116,4.385-3.105C419.226,2.097,426.054,2.077,432.883,2.074z"/>
	<path fill-rule="evenodd" clip-rule="evenodd" fill="#F37937" d="M236.048,111.254c-19.5,19.082-42.431,22.994-67.068,12.986
		c-18.924-7.688-30.541-22.643-35.314-42.85c-3.485-14.75-0.136-28.324,5.574-41.727c2.534-5.947,6.813-10.525,11.335-14.936
		c1.667-1.625,3.482-3.111,4.573-5.236c2.626-1.449,5.337-2.733,8.003-4.103c7.196-4.456,15.46-6.768,22.583-11.424
		c7.847-5.127,16.091-1.336,24.171-0.512c0.439,0.045,1.172,0.931,1.125,1.353c-0.172,1.524-0.884,2.71-2.461,3.418
		c-2.923,1.313-6.081,1.546-9.278,2.255c0.874,3.444,5.438,1.4,6.593,5.108c-4.48,0.537-9.135,1.182-13.295,1.041
		c-7.702-0.26-13.804,3.233-20.007,6.327c-11.137,5.553-19.437,14.201-24.673,25.662c-7.912,17.316-6.067,33.795,4.016,49.631
		c0.568,1.33,0.685,2.848,1.667,4.01c2.294,2.816,4.981,5.266,7.36,8c10.875,9.572,23.923,12.715,37.882,11.65
		c27.125-2.064,49.718-24.063,49.739-55.535c0.005-7.598-1.382-15.217-5.182-22.102c-0.881-1.596-1.701-3.24-1.498-5.166
		c1.278-0.572,2.18,0.107,3.048,0.91c1.041,2.047,3.154,3.32,4.008,5.512c1.2,2.152,1.145,4.65,1.935,6.918
		c0.412,1.9,0.926,3.781,1.144,5.715c0.304,2.236,0.385,4.5,0.649,6.684c0.229-2.504-0.233-4.883-0.551-7.291
		c-0.214-1.619-0.897-3.68,1.715-4.27c4.828,14.865,3.518,29.176-3.881,42.936c-2.227,0.152-1.19-1.586-1.482-2.553
		c-0.201-1.188,0.119-2.291,0.563-3.332c-0.093-0.264,0.639-0.459,0.187-0.713c-0.57-0.322,0.271-0.25-0.122,0.346
		c-0.422,1.189-1.181,2.266-0.701,3.578c0.05,0.654,0.058,1.307-0.225,1.922c-0.807,1.197-1.912,2.258-1.803,3.883
		c0.021,1.061,0.127,2.127-0.208,3.162c-0.609,1.451-1.255,2.859-3.202,2.764c-0.3-0.285-0.481-0.635-0.544-1.012
		c-0.295-0.236,0.657-0.658-0.062-0.811c-0.645-0.135,0.325-0.068-0.188,0.391c-0.394,1.098-0.826,2.148-1.426,3.129
		c-0.225,0.363-0.49,0.689-0.782,0.998C238.726,109.145,237.74,110.623,236.048,111.254z"/>
	<path fill-rule="evenodd" clip-rule="evenodd" fill="#252734" d="M844.949,97.928c6.795,2.961,4.939,11.582,9.406,16.025
		c3.918-4.717,2.871-12.939,9.219-16.15c0.504,0.311,1.006,0.621,1.508,0.932c-3.41,8.088-6.793,16.188-10.246,24.258
		c-1.119,2.615-3.271,3.619-6.061,3.412c-1.262-0.096-2.285-0.326-2.297-1.947c-0.01-1.574,0.594-1.736,2.123-1.711
		c3.645,0.059,4.045-2.082,2.818-5.004c-2.631-6.271-5.234-12.553-7.85-18.83C844.029,98.584,844.49,98.256,844.949,97.928z"/>
	<path fill-rule="evenodd" clip-rule="evenodd" fill="#282A37" d="M840.346,108.836c-0.006,2.826-0.045,5.654,0.006,8.48
		c0.039,2.105-2.07,3.15-2.699,2.105c-2.119-3.514-3.691-0.795-5.467-0.049c-5.76,2.42-10.406-0.535-10.479-6.715
		c-0.045-3.658-0.064-7.318,0.021-10.975c0.031-1.316-0.684-3.215,1.807-3.279c2.738-0.072,2.16,1.945,2.186,3.496
		c0.053,3.324,0.025,6.652,0.014,9.977c-0.008,2.031-0.137,4.15,2.379,4.889c2.355,0.689,4.203-0.359,5.791-1.994
		c2.861-2.945,2.254-6.713,2.652-10.322c0.223-2.023-2.023-5.93,2.035-5.807c3.305,0.1,1.285,3.711,1.699,5.715
		C840.59,105.793,840.35,107.338,840.346,108.836z"/>
	<path fill-rule="evenodd" clip-rule="evenodd" fill="#FAC7AC" d="M238.79,33.934c-0.354-0.799-0.708-1.598-1.062-2.396
		c0,0-0.204-0.441-0.208-0.438c0.342-0.107,0.524-0.348,0.5-0.709c-0.007-0.105-0.193-0.154-0.442-0.158
		c-0.008-0.006-0.309-0.387-0.319-0.393c-0.191-0.301-0.347-0.611-0.487-0.938c-0.226-0.516-0.373-1.047-0.389-1.611
		c0.045-0.391,0.213-0.717,0.516-0.969c4.492,0.279,4.48,5.082,7.185,7.156c-0.121,1.07,0.788,2.262-0.384,3.209
		c-0.659,0.326-1.347,0.393-2.063,0.236C240.339,36.26,239.333,35.316,238.79,33.934z"/>
	<path fill-rule="evenodd" clip-rule="evenodd" fill="#FBD3BE" d="M160.952,110.258c-3.89-1.471-6.154-4.541-7.953-8.07
		c-0.236-0.928,0.117-1.244,1.023-0.988c2.273,2.135,4.519,4.301,6.83,6.395C161.864,108.512,161.397,109.354,160.952,110.258z"/>
	<path fill-rule="evenodd" clip-rule="evenodd" fill="#FBD7C4" d="M228.975,23.232c-3.16,0.459-4.5-1.879-6.027-3.926
		c-0.987-0.852-2.121-1.661-0.962-3.167c3.203,0.914,5.166,3.323,7.034,5.844C229.352,22.412,229.336,22.828,228.975,23.232z"/>
	<path fill-rule="evenodd" clip-rule="evenodd" fill="#41424E" d="M816.152,117.586c0.125,1.785-0.846,2.248-2.438,2.234
		c-1.857-0.016-2.113-1.086-2.084-2.584c0.031-1.523,0.84-1.898,2.203-1.941C815.525,115.24,816.291,115.922,816.152,117.586z"/>
	<path fill-rule="evenodd" clip-rule="evenodd" fill="#F58D55" d="M248.96,93.205c0.129,1.072-0.199,2.297,1.001,3.014
		c-0.855,2.344-1.912,4.566-3.792,6.291c-0.425-0.988-0.852-1.979-1.277-2.969c1.013-1.555,1.67-3.352,3.136-4.594
		c-0.032-0.494-0.065-0.986-0.098-1.48C248.162,92.941,248.505,92.854,248.96,93.205z"/>
	<path fill-rule="evenodd" clip-rule="evenodd" fill="#F8B18C" d="M236.831,27.107c0.382,0.709,0.765,1.418,1.148,2.127
		c-0.223,0.254-0.469,0.484-0.739,0.689c-0.283,0.189-0.583,0.346-0.901,0.469c-0.323,0.148-0.65,0.148-0.979,0.025
		c-0.927-1.859-3.45-2.664-3.41-5.162c0.085-0.592,0.7-0.652,1.019-1.012c0.338,0.004,0.677,0.008,1.015,0.012
		C234.698,25.441,235.574,26.463,236.831,27.107z"/>
	<path fill-rule="evenodd" clip-rule="evenodd" fill="#FDF4EF" d="M216.955,16.255c-2.087-0.702-4.668,0.021-6.83-2.842
		c2.816,0.267,5.084-0.358,6.852,1.804c0.309,0.238,0.409,0.471,0.299,0.7C217.168,16.142,217.061,16.255,216.955,16.255z"/>
	<path fill-rule="evenodd" clip-rule="evenodd" fill="#FAD3BD" d="M163.152,15.389c-1.961,2.746-4.982,3.427-8.003,4.103
		C157.391,17.294,159.659,15.148,163.152,15.389z"/>
	<path fill-rule="evenodd" clip-rule="evenodd" fill="#F69E6F" d="M242.76,106.377c-0.343,2.965-2.329,4.586-4.768,5.84
		c-1.331-2.477,1.211-3.42,2.004-5.055l-0.083,0.068C240.731,106.508,241.276,104.875,242.76,106.377z"/>
	<path fill-rule="evenodd" clip-rule="evenodd" fill="#FBD4BF" d="M247.848,45.248c-0.458-1.959-3.545-2.424-2.859-5.031
		c0.166-0.154,0.333-0.309,0.499-0.463c0.927-0.381,1.764-0.285,2.476,0.471c0.071,0.254,0.098,0.516,0.08,0.779
		c-0.017,1.293,1.073,2.158,1.298,3.361c0.053,0.441-0.075,0.822-0.383,1.145C248.522,45.699,248.155,45.598,247.848,45.248z"/>
	<path fill-rule="evenodd" clip-rule="evenodd" fill="#FBD1BB" d="M241.837,36.25c0.704-0.002,1.408-0.006,2.113-0.008
		c0.527-0.396,0.989-0.33,1.384,0.199c0.787,1.363,0.657,2.637-0.383,3.816c0,0,0.037-0.041,0.037-0.041
		c-1.264,0.277-2.065-0.736-3.095-1.111l0.065-0.359C241.308,37.943,241.295,37.111,241.837,36.25z"/>
	<path fill-rule="evenodd" clip-rule="evenodd" fill="#F47E3E" d="M248.931,45.254c0.036-0.348,0.071-0.693,0.107-1.039
		c0.337-0.389,0.68-0.375,1.027-0.016c1.185,1.373,1.715,3.029,2.066,4.762c-0.337,0.42-0.674,0.838-1.011,1.258
		C248.875,49.232,249.314,47.061,248.931,45.254z"/>
	<path fill-rule="evenodd" clip-rule="evenodd" fill="#F69F70" d="M244.951,40.258c-0.079-1.275-0.157-2.551-0.236-3.826
		c0.342-0.586,0.768-0.652,1.275-0.205c1.245,1.043,1.93,2.361,1.972,3.998C246.958,40.234,245.955,40.246,244.951,40.258z"/>
	<path fill-rule="evenodd" clip-rule="evenodd" fill="#FBDCCC" d="M221.986,16.14c0.321,1.055,0.642,2.11,0.962,3.167
		c-0.988-0.361-1.975-0.725-2.962-1.088c-0.547-0.547-1.651-0.815-0.999-1.971C219.976,15.931,220.931,14.657,221.986,16.14z"/>
	<path fill-rule="evenodd" clip-rule="evenodd" fill="#F69F70" d="M241.837,36.25c0.04,0.832,0.081,1.662,0.121,2.494
		c-1.686-1.186-3.509-2.285-3.168-4.809C239.806,34.707,240.821,35.479,241.837,36.25z"/>
	<path fill-rule="evenodd" clip-rule="evenodd" fill="#FBDBC9" d="M154.022,101.199c-0.341,0.33-0.682,0.66-1.023,0.988
		c-1.872-0.9-1.993-2.277-1.074-3.939C153.316,98.74,153.934,99.781,154.022,101.199z"/>
	<path fill-rule="evenodd" clip-rule="evenodd" fill="#F37B3A" d="M250.065,44.199c-0.342,0.006-0.685,0.012-1.027,0.016
		c-0.482-1.023-2.558-1.553-0.995-3.211C249.418,41.625,249.95,42.781,250.065,44.199z"/>
	<path fill-rule="evenodd" clip-rule="evenodd" fill="#F5945F" d="M245.991,36.227c-0.424,0.068-0.848,0.135-1.274,0.203
		c-0.264-0.031-0.519-0.096-0.767-0.188c-0.454-0.947-0.83-1.889,0.132-2.766C245.141,34.102,245.712,35.063,245.991,36.227z"/>
	<path fill-rule="evenodd" clip-rule="evenodd" fill="#FDEEE6" d="M218.987,16.248c0.333,0.658,0.666,1.314,0.999,1.971
		c-1.449,0.025-2.443-0.655-3.031-1.963c0.007-0.346,0.015-0.691,0.022-1.037C217.646,15.561,218.317,15.904,218.987,16.248z"/>
	<path fill-rule="evenodd" clip-rule="evenodd" fill="#F5935F" d="M236.831,27.107c-2.01,0.109-2.77-1.031-2.848-2.852
		c0.971,0.689,1.943,1.377,2.915,2.066C236.896,26.586,236.875,26.848,236.831,27.107z"/>
	<path fill-rule="evenodd" clip-rule="evenodd" fill="#F37C3C" d="M235.36,30.418c0.209,0.037,0.399-0.008,0.57-0.133
		c0.172-0.146,0.345-0.293,0.517-0.439c0.211,0.078,0.423,0.16,0.635,0.238c0.295,0.418,0.256,0.783-0.171,1.088
		C236.24,31.236,235.592,31.256,235.36,30.418z"/>
	<path fill-rule="evenodd" clip-rule="evenodd" fill="#F37B3B" d="M230.985,25.244c-1.123,0.521-0.867-0.34-0.906-0.904
		c0.142-0.178,0.283-0.357,0.424-0.537c0.204,0.1,0.409,0.201,0.613,0.303C231.411,24.523,231.368,24.904,230.985,25.244z"/>
	<path fill-rule="evenodd" clip-rule="evenodd" fill="#F9C4A8" d="M228.975,23.232c0.015-0.416,0.03-0.83,0.045-1.246
		c0.35,0.379,0.699,0.762,1.049,1.145l-0.139,0.154C229.611,23.27,229.293,23.252,228.975,23.232z"/>
	<path fill-rule="evenodd" clip-rule="evenodd" fill="#F9C5A8" d="M236.911,31.172c0.031-0.297,0.026-0.592-0.015-0.887
		c0.343-0.432,0.704-0.469,1.085-0.049l-0.021-0.021c0.199,0.221,0.268,0.445,0.206,0.672c-0.062,0.227-0.125,0.34-0.19,0.34
		c0,0-0.247,0.309-0.248,0.309C237.458,31.41,237.186,31.287,236.911,31.172z"/>
	<path fill-rule="evenodd" clip-rule="evenodd" fill="#F7A77D" d="M232.968,24.244c-0.339,0.338-0.679,0.676-1.019,1.012
		l-0.061,0.057c-0.411-0.459-0.361-0.859,0.149-1.205C232.353,24.123,232.663,24.17,232.968,24.244z"/>
	<path fill-rule="evenodd" clip-rule="evenodd" fill="#F9C5AA" d="M232.039,24.107c-0.049,0.402-0.099,0.803-0.149,1.205
		c-0.3-0.039-0.602-0.061-0.905-0.068c-0.021-0.324-0.05-0.646-0.088-0.971c0.361-0.387,0.746-0.41,1.153-0.072L232.039,24.107z"/>
	<path fill-rule="evenodd" clip-rule="evenodd" fill="#F7A77D" d="M232.05,24.201c-0.384,0.023-0.768,0.049-1.152,0.072
		c-0.001,0,0.062,0.031,0.062,0.031c-0.233-0.254-0.336-0.525-0.309-0.816c0.028-0.299,0.075-0.447,0.14-0.447
		C231.21,23.428,231.63,23.814,232.05,24.201z"/>
	<path fill-rule="evenodd" clip-rule="evenodd" fill="#F9C7AC" d="M230.791,23.041c0.056,0.422,0.112,0.842,0.169,1.264l-0.442-0.02
		l-0.439,0.055c-0.049-0.352-0.098-0.705-0.148-1.057c0,0.002,0.134-0.146,0.136-0.15C230.303,23.055,230.544,23.025,230.791,23.041
		z"/>
	<path fill-rule="evenodd" clip-rule="evenodd" fill="none" d="M80.769,98.178c-7.36,10.311-17.53,14.37-29.93,12.99
		c-7.66-0.85-10.83-4.57-10.83-12.08c-0.01-12.15-0.01-24.3-0.01-36.439V27.197c0.01-9.239,3.67-13.309,13.04-13.879
		c10.67-0.65,19.55,3.07,26.2,11.629C92.938,42.598,93.739,80.027,80.769,98.178z"/>
	<path fill-rule="evenodd" clip-rule="evenodd" fill="#F8B38E" d="M237.982,30.236c-0.361,0.016-0.723,0.031-1.085,0.049
		c0,0,0.044,0.021,0.044,0.021c-0.295-0.359-0.275-0.715,0.016-1.064c0.34-0.002,0.681-0.006,1.021-0.008
		C237.98,29.568,237.981,29.902,237.982,30.236z"/>
	<path fill-rule="evenodd" clip-rule="evenodd" fill="#F7A87E" d="M237.977,31.227c-0.005-0.338-0.01-0.674-0.016-1.012
		C238.633,30.541,238.841,30.875,237.977,31.227z"/>
	<path fill-rule="evenodd" clip-rule="evenodd" fill="#F9C5A8" d="M236.958,29.242c-0.005,0.354-0.011,0.709-0.016,1.064
		c-0.337-0.008-0.674-0.016-1.011-0.021C236.272,29.938,236.615,29.59,236.958,29.242z"/>
</g>
</svg>
